<svg width="186" height="77" viewBox="0 0 186 77" fill="none" xmlns="http://www.w3.org/2000/svg">
    <path d="M182.498 19.034C180.206 15.7949 177.009 13.3674 172.913 11.7517C168.818 10.1359 164.01 9.32422 158.49 9.32422H129.969V75.9604H132.152H144.02H146.614V73.5866V73.5789V53.9832V22.5488H157.995C161.324 22.5488 163.716 23.3759 165.179 25.0222C166.642 26.6763 167.378 28.7055 167.378 31.1177C167.378 33.9739 166.526 36.1028 164.831 37.4964C163.135 38.8978 160.851 39.5946 157.995 39.5946H151.414V52.7273H158.49C164.01 52.7273 168.818 51.9692 172.913 50.4454C177.009 48.9215 180.199 46.5707 182.498 43.4004C184.79 40.2302 185.943 36.1946 185.943 31.3091C185.943 26.37 184.79 22.2732 182.498 19.034Z" fill="black"/>
    <path d="M40.6071 34.9493V9.50765L56.9197 9.5V76.0521H54.4603H43.355H40.5995V50.251H17.2579V76.0521H15.1021C14.8972 76.098 14.677 76.1362 14.4417 76.1362H3.72354C3.48063 76.1362 3.25291 76.1056 3.04037 76.0521H0.945312V9.50765H17.2579V34.9493H40.6071Z" fill="black"/>
    <path d="M116.052 76H99.4844V0H116.052V76Z" fill="black"/>
    <path d="M87.6845 76H71.1172V35.603H87.6845V76Z" fill="black"/>
</svg>
